<?xml version="1.0" encoding="UTF-8" standalone="no"?>
<svg width="512px" height="512px" viewBox="0 0 512 512" version="1.1" xmlns="http://www.w3.org/2000/svg" xmlns:xlink="http://www.w3.org/1999/xlink">
    <!-- Generator: Sketch 41 (35326) - http://www.bohemiancoding.com/sketch -->
    <title>AC-white</title>
    <desc>Created with Sketch.</desc>
    <defs></defs>
    <g id="Page-1" stroke="none" stroke-width="1" fill="none" fill-rule="evenodd">
        <g id="AC" fill="#FFFFFF">
            <path d="M114.635061,187.156684 L96,252.403212 L158.249033,252.403212 L139.613972,187.156684 C138.556658,184.58115 137.433279,182.721071 136.243801,181.576389 C135.054324,180.431707 133.66662,179.859375 132.08065,179.859375 L122.168383,179.859375 C120.582413,179.859375 119.194709,180.431707 118.005231,181.576389 C116.815753,182.721071 115.692374,184.58115 114.635061,187.156684 Z M91.8314535,391.46875 C91.8314535,396.905988 90.7080745,400.840772 88.4612829,403.27322 C86.2144913,405.705669 82.58003,406.921875 77.5577899,406.921875 L19.2736636,406.921875 C14.2514235,406.921875 10.6169622,405.705669 8.37017057,403.27322 C6.12337896,400.840772 5,396.905988 5,391.46875 L5,278.145833 C5,269.560721 6.25554119,259.68799 8.76666122,248.527344 C11.2777813,237.366698 15.176567,224.346139 20.4631356,209.465278 L54.9578225,112.02474 C56.5437931,107.159843 58.9887944,103.582766 62.2928997,101.293403 C65.597005,99.0040395 69.8922775,97.859375 75.178846,97.859375 L181.834832,97.859375 C186.857072,97.859375 191.020183,99.0040395 194.324288,101.293403 C197.628393,103.582766 200.073394,107.159843 201.659365,112.02474 L236.154052,209.465278 C241.44062,224.346139 245.339406,237.366698 247.850526,248.527344 C250.361646,259.68799 251.617188,269.560721 251.617188,278.145833 L251.617188,391.46875 C251.617188,396.905988 250.493809,400.840772 248.247017,403.27322 C246.000225,405.705669 242.365764,406.921875 237.343524,406.921875 L177.473435,406.921875 C172.186866,406.921875 168.288081,405.705669 165.776961,403.27322 C163.265841,400.840772 162.010299,396.905988 162.010299,391.46875 L162.010299,331.373264 L91.8314535,331.373264 L91.8314535,391.46875 Z"></path>
            <path d="M486.093617,408.0625 L382.471489,408.0625 C347.081241,408.0625 320.822071,400.908347 303.693191,386.599826 C286.564312,372.291306 278,350.256515 278,320.494792 L278,186.996962 C278,157.235239 286.564312,135.128906 303.693191,120.6773 C320.822071,106.225695 347.081241,99 382.471489,99 L486.093617,99 C491.472935,99 495.365804,100.216206 497.77234,102.648655 C500.178877,105.081103 501.382128,109.015887 501.382128,114.453125 L501.382128,166.392795 C501.382128,171.830033 500.178877,175.764817 497.77234,178.197266 C495.365804,180.629714 491.472935,181.84592 486.093617,181.84592 L400.732766,181.84592 C391.955984,181.84592 385.444277,183.634458 381.197447,187.211589 C376.950617,190.788719 374.827234,196.154333 374.827234,203.308594 L374.827234,305.47092 C374.827234,312.62518 376.950617,317.847712 381.197447,321.138672 C385.444277,324.429632 391.955984,326.075087 400.732766,326.075087 L486.093617,326.075087 C491.472935,326.075087 495.365804,327.291293 497.77234,329.723741 C500.178877,332.15619 501.382128,336.090974 501.382128,341.528212 L501.382128,392.609375 C501.382128,398.046613 500.178877,401.981397 497.77234,404.413845 C495.365804,406.846294 491.472935,408.0625 486.093617,408.0625 Z" id="Path-Copy"></path>
        </g>
    </g>
</svg>