<?xml version="1.0" encoding="UTF-8" standalone="no"?>
<svg width="512px" height="512px" viewBox="0 0 512 512" version="1.1" xmlns="http://www.w3.org/2000/svg" xmlns:xlink="http://www.w3.org/1999/xlink">
    <!-- Generator: Sketch 41 (35326) - http://www.bohemiancoding.com/sketch -->
    <title>CE-white</title>
    <desc>Created with Sketch.</desc>
    <defs></defs>
    <g id="Page-1" stroke="none" stroke-width="1" fill="none" fill-rule="evenodd">
        <g id="CE" fill="#FFFFFF">
            <path d="M214.533506,408.524868 L110.911378,408.524868 C75.5211304,408.524868 49.2619603,401.446925 32.1330804,387.290826 C15.0042004,373.134726 6.43988889,351.334661 6.43988889,321.889974 L6.43988889,189.81423 C6.43988889,160.369544 15.0042004,138.498698 32.1330804,124.201038 C49.2619603,109.903378 75.5211304,102.754655 110.911378,102.754655 L214.533506,102.754655 C219.912824,102.754655 223.805692,103.957906 226.212229,106.364443 C228.618766,108.770979 229.822017,112.663848 229.822017,118.043166 L229.822017,169.429549 C229.822017,174.808867 228.618766,178.701735 226.212229,181.108272 C223.805692,183.514809 219.912824,184.71806 214.533506,184.71806 L129.172655,184.71806 C120.395873,184.71806 113.884165,186.487545 109.637336,190.02657 C105.390506,193.565595 103.267123,198.874053 103.267123,205.952102 L103.267123,307.026145 C103.267123,314.104194 105.390506,319.271093 109.637336,322.526996 C113.884165,325.782899 120.395873,327.410826 129.172655,327.410826 L214.533506,327.410826 C219.912824,327.410826 223.805692,328.614076 226.212229,331.020613 C228.618766,333.42715 229.822017,337.320018 229.822017,342.699336 L229.822017,393.236357 C229.822017,398.615675 228.618766,402.508544 226.212229,404.915081 C223.805692,407.321618 219.912824,408.524868 214.533506,408.524868 Z M490.151378,408.524868 L293.099463,408.524868 C287.720146,408.524868 283.827277,407.321618 281.42074,404.915081 C279.014203,402.508544 277.810953,398.615675 277.810953,393.236357 L277.810953,118.043166 C277.810953,112.663848 279.014203,108.770979 281.42074,106.364443 C283.827277,103.957906 287.720146,102.754655 293.099463,102.754655 L490.151378,102.754655 C495.530696,102.754655 499.423565,103.957906 501.830102,106.364443 C504.236639,108.770979 505.439889,112.663848 505.439889,118.043166 L505.439889,167.730826 C505.439889,173.110143 504.236639,177.003012 501.830102,179.409549 C499.423565,181.816086 495.530696,183.019336 490.151378,183.019336 L372.939463,183.019336 L372.939463,215.719762 L455.752229,215.719762 C461.131547,215.719762 465.024416,216.923012 467.430953,219.329549 C469.83749,221.736086 471.04074,225.628955 471.04074,231.008272 L471.04074,276.449123 C471.04074,281.828441 469.83749,285.72131 467.430953,288.127847 C465.024416,290.534384 461.131547,291.737634 455.752229,291.737634 L372.939463,291.737634 L372.939463,328.260187 L490.151378,328.260187 C495.530696,328.260187 499.423565,329.463438 501.830102,331.869974 C504.236639,334.276511 505.439889,338.16938 505.439889,343.548698 L505.439889,393.236357 C505.439889,398.615675 504.236639,402.508544 501.830102,404.915081 C499.423565,407.321618 495.530696,408.524868 490.151378,408.524868 Z"></path>
        </g>
    </g>
</svg>