<?xml version="1.0" encoding="UTF-8" standalone="no"?>
<svg width="512px" height="512px" viewBox="0 0 512 512" version="1.1" xmlns="http://www.w3.org/2000/svg" xmlns:xlink="http://www.w3.org/1999/xlink">
    <!-- Generator: Sketch 41 (35326) - http://www.bohemiancoding.com/sketch -->
    <title>divide-black</title>
    <desc>Created with Sketch.</desc>
    <defs></defs>
    <g id="Page-1" stroke="none" stroke-width="1" fill="none" fill-rule="evenodd">
        <g id="divide" stroke="#979797" fill="#000000">
            <path d="M501.240438,295.992339 C501.240438,307.037761 492.294696,315.991845 481.24058,315.991845 L29.9998575,315.991845 C18.9542412,315.991845 10,307.04652 10,295.992339 L10,215.999506 C10,204.954084 18.9457415,196 29.9998575,196 L481.24058,196 C492.286196,196 501.240438,204.945325 501.240438,215.999506 L501.240438,295.992339 Z M256,487.991845 C295.764502,487.991845 328,455.756347 328,415.991845 C328,376.227343 295.764502,343.991845 256,343.991845 C216.235498,343.991845 184,376.227343 184,415.991845 C184,455.756347 216.235498,487.991845 256,487.991845 Z M256,168 C295.764502,168 328,135.764502 328,96 C328,56.235498 295.764502,24 256,24 C216.235498,24 184,56.235498 184,96 C184,135.764502 216.235498,168 256,168 Z" id="Combined-Shape"></path>
        </g>
    </g>
</svg>