<?xml version="1.0" encoding="UTF-8" standalone="no"?>
<svg width="512px" height="512px" viewBox="0 0 512 512" version="1.1" xmlns="http://www.w3.org/2000/svg" xmlns:xlink="http://www.w3.org/1999/xlink">
    <!-- Generator: Sketch 41 (35326) - http://www.bohemiancoding.com/sketch -->
    <title>equals-white</title>
    <desc>Created with Sketch.</desc>
    <defs></defs>
    <g id="Page-1" stroke="none" stroke-width="1" fill="none" fill-rule="evenodd">
        <g id="equals" fill="#FFFFFF">
            <path d="M501.240438,210.992339 C501.240438,222.037761 492.294696,230.991845 481.24058,230.991845 L29.9998575,230.991845 C18.9542412,230.991845 10,222.04652 10,210.992339 L10,130.999506 C10,119.954084 18.9457415,111 29.9998575,111 L481.24058,111 C492.286196,111 501.240438,119.945325 501.240438,130.999506 L501.240438,210.992339 Z M501.620219,381.996417 C501.620219,393.041839 492.674477,401.995922 481.620361,401.995922 L30.3796388,401.995922 C19.3340224,401.995922 10.3797812,393.050598 10.3797812,381.996417 L10.3797812,302.003583 C10.3797812,290.958161 19.3255228,282.004078 30.3796388,282.004078 L481.620361,282.004078 C492.665978,282.004078 501.620219,290.949402 501.620219,302.003583 L501.620219,381.996417 Z" id="Combined-Shape"></path>
        </g>
    </g>
</svg>