<?xml version="1.0" encoding="UTF-8" standalone="no"?>
<svg width="512px" height="512px" viewBox="0 0 512 512" version="1.1" xmlns="http://www.w3.org/2000/svg" xmlns:xlink="http://www.w3.org/1999/xlink">
    <!-- Generator: Sketch 41 (35326) - http://www.bohemiancoding.com/sketch -->
    <title>plus-minus-white</title>
    <desc>Created with Sketch.</desc>
    <defs></defs>
    <g id="Page-1" stroke="none" stroke-width="1" fill="none" fill-rule="evenodd">
        <g id="plus-minus" fill="#FFFFFF">
            <g id="Group" transform="translate(6.000000, 149.000000)">
                <path d="M418.648892,134.960818 L491.365075,134.960818 C496.229337,134.960818 500.165828,131.008753 500.165828,126.133633 L500.165828,90.8271848 C500.165828,85.9481993 496.225596,82 491.365075,82 L418.648892,82 L365.847586,82 L292.800753,82 C287.936491,82 284,85.9520653 284,90.8271848 L284,126.133633 C284,131.012619 287.940231,134.960818 292.800753,134.960818 L365.847586,134.960818 L418.648892,134.960818 Z" id="Combined-Shape-Copy"></path>
                <path d="M81.847586,208.298965 C81.847586,213.185134 85.787748,217.139353 90.6481842,217.139353 L125.848293,217.139353 C130.712584,217.139353 134.648892,213.181377 134.648892,208.298965 L134.648892,134.874466 L207.365075,134.874466 C212.229337,134.874466 216.165828,130.916559 216.165828,126.034233 L216.165828,90.6755966 C216.165828,85.7893993 212.225596,81.8353639 207.365075,81.8353639 L134.648892,81.8353639 L134.648892,8.84038814 C134.648892,3.95421954 130.708729,-5.68434189e-14 125.848293,-5.68434189e-14 L90.6481842,-5.68434189e-14 C85.7838937,-5.68434189e-14 81.847586,3.95797659 81.847586,8.84038814 L81.847586,81.8353639 L8.80075301,81.8353639 C3.93649113,81.8353639 0,85.7932709 0,90.6755966 L0,126.034233 C0,130.92043 3.94023133,134.874466 8.80075301,134.874466 L81.847586,134.874466 L81.847586,208.298965 Z" id="Combined-Shape"></path>
            </g>
        </g>
    </g>
</svg>