<?xml version="1.0" encoding="UTF-8" standalone="no"?>
<svg width="512px" height="512px" viewBox="0 0 512 512" version="1.1" xmlns="http://www.w3.org/2000/svg" xmlns:xlink="http://www.w3.org/1999/xlink">
    <!-- Generator: Sketch 41 (35326) - http://www.bohemiancoding.com/sketch -->
    <title>plus-black</title>
    <desc>Created with Sketch.</desc>
    <defs></defs>
    <g id="Page-1" stroke="none" stroke-width="1" fill="none" fill-rule="evenodd">
        <g id="plus" stroke="#979797" fill="#000000">
            <path d="M196,316.130279 L196,482.24058 C196,493.294696 204.954084,502.240438 215.999506,502.240438 L295.992339,502.240438 C307.04652,502.240438 315.991845,493.286196 315.991845,482.24058 L315.991845,316.130279 L481.24058,316.130279 C492.294696,316.130279 501.240438,307.176196 501.240438,296.130774 L501.240438,216.137941 C501.240438,205.08376 492.286196,196.138435 481.24058,196.138435 L315.991845,196.138435 L315.991845,30.9998575 C315.991845,19.9457415 307.037761,11 295.992339,11 L215.999506,11 C204.945325,11 196,19.9542412 196,30.9998575 L196,196.138435 L29.9998575,196.138435 C18.9457415,196.138435 10,205.092518 10,216.137941 L10,296.130774 C10,307.184955 18.9542412,316.130279 29.9998575,316.130279 L196,316.130279 L196,316.130279 Z" id="Combined-Shape"></path>
        </g>
    </g>
</svg>