<?xml version="1.0" encoding="UTF-8" standalone="no"?>
<svg width="512px" height="512px" viewBox="0 0 512 512" version="1.1" xmlns="http://www.w3.org/2000/svg" xmlns:xlink="http://www.w3.org/1999/xlink">
    <!-- Generator: Sketch 41 (35326) - http://www.bohemiancoding.com/sketch -->
    <title>plus-minus-black</title>
    <desc>Created with Sketch.</desc>
    <defs></defs>
    <g id="Page-1" stroke="none" stroke-width="1" fill="none" fill-rule="evenodd">
        <g id="plus-minus" fill="#000000">
            <path d="M370.612917,377 L432.508813,377 C436.649265,377 440,373.791235 440,369.833023 L440,341.166977 C440,337.205626 436.646082,334 432.508813,334 L370.612917,334 L325.668532,334 L263.491187,334 C259.350735,334 256,337.208765 256,341.166977 L256,369.833023 C256,373.794374 259.353918,377 263.491187,377 L325.668532,377 L370.612917,377 Z" id="Combined-Shape-Copy"></path>
            <path d="M141.668532,193.290207 L141.668532,255.508813 C141.668532,259.649265 145.022391,263 149.159587,263 L179.121862,263 C183.262338,263 186.612917,259.646082 186.612917,255.508813 L186.612917,193.290207 L248.508813,193.290207 C252.649265,193.290207 256,189.936348 256,185.799152 L256,155.836877 C256,151.696401 252.646082,148.345822 248.508813,148.345822 L186.612917,148.345822 L186.612917,86.4911866 C186.612917,82.3507348 183.259057,79 179.121862,79 L149.159587,79 C145.01911,79 141.668532,82.3539185 141.668532,86.4911866 L141.668532,148.345822 L79.4911866,148.345822 C75.3507348,148.345822 72,151.699682 72,155.836877 L72,185.799152 C72,189.939628 75.3539185,193.290207 79.4911866,193.290207 L141.668532,193.290207 L141.668532,193.290207 Z" id="Combined-Shape" stroke="#979797"></path>
        </g>
    </g>
</svg>